<svg xmlns="http://www.w3.org/2000/svg" xmlns:xlink="http://www.w3.org/1999/xlink" version="1.1" x="0px" y="0px" viewBox="0 0 24 30" enable-background="new 0 0 24 24" xml:space="preserve"><g><circle cx="9" cy="13" r="1"/><circle cx="15" cy="13" r="1"/><path d="M12,18c-0.3,0-0.7-0.1-0.9-0.3c0,0.1-0.1,0.2-0.1,0.3c0,0.6,0.4,1,1,1c0.6,0,1-0.4,1-1c0-0.1,0-0.2-0.1-0.3   C12.7,17.9,12.3,18,12,18z"/><path d="M22,16v-1h-2.1c0-0.3,0.1-0.7,0.1-1c0-1.5-0.4-2.9-1.1-4.1C20.6,9.5,22,7.9,22,6c0-2.2-1.8-4-4-4c-2.2,0-4,1.8-4,4   c0,0.1,0,0.2,0,0.3C13.4,6.1,12.7,6,12,6c-0.7,0-1.4,0.1-2,0.3c0-0.1,0-0.2,0-0.3c0-2.2-1.8-4-4-4C3.8,2,2,3.8,2,6   c0,1.9,1.3,3.5,3.1,3.9C4.4,11.1,4,12.5,4,14c0,0.3,0,0.7,0.1,1H2v1h2.3c0.3,1,0.7,1.9,1.3,2.7L2,21.2L2.6,22l3.6-2.5   C7.6,21,9.7,22,12,22c2.3,0,4.4-1,5.8-2.5l3.6,2.5l0.6-0.8l-3.5-2.5c0.6-0.8,1-1.7,1.3-2.7H22z M12,20c-3.3,0-6-2.7-6-6   c0-3.3,2.7-6,6-6c3.3,0,6,2.7,6,6C18,17.3,15.3,20,12,20z"/><path d="M12,15c-0.7,0-1.4,0.4-1.7,1c0.3,0.6,1,1,1.7,1c0.7,0,1.4-0.4,1.7-1C13.4,15.4,12.7,15,12,15z"/></g><text x="0" y="39" fill="#000000" font-size="5px" font-weight="bold" font-family="'Helvetica Neue', Helvetica, Arial-Unicode, Arial, Sans-serif">Created by Creative Stall</text><text x="0" y="44" fill="#000000" font-size="5px" font-weight="bold" font-family="'Helvetica Neue', Helvetica, Arial-Unicode, Arial, Sans-serif">from the Noun Project</text></svg>