<svg xmlns="http://www.w3.org/2000/svg" xmlns:xlink="http://www.w3.org/1999/xlink" version="1.1" x="0px" y="0px" viewBox="0 0 100 125"><path d="M831,1200 c-84,0,-184,-36,-184,-461 c0,-68,235,-161,235,-381 c0,-89,-57,-158,-144,-158 c-55,0,-95,27,-108,73 c-26,91,102,82,102,149 c0,49,-68,74,-132,74 c-64,0,-132,-25,-132,-74 c0,-67,130,-59,103,-150 c-14,-47,-55,-72,-107,-72 c-90,0,-142,73,-142,159 c0,218,225,312,225,381 c0,423,-96,460,-181,460 c-334,0,-565,-672,-565,-908 c0,-106,47,-157,113,-157 c134,0,203,167,236,317 c4,18,14,26,27,26 c15,0,23,-12,23,-30 c0,-20,0,-40,0,-59 c0,-295,215,-389,403,-389 c188,0,397,95,397,388 c0,34,0,54,0,60 c0,17,6,30,24,30 c15,0,21,-9,26,-26 c21,-73,84,-311,241,-311 c64,0,110,47,110,150 c0,230,-230,909,-570,909 Z M268,716 c0,36,31,65,66,65 c36,0,67,-30,67,-65 c0,-36,-31,-66,-67,-66 c-35,0,-66,29,-66,66 Z M866,650 c-36,0,-67,30,-67,66 c0,35,31,65,67,65 c35,0,66,-29,66,-65 c0,-37,-31,-66,-66,-66 Z M866,650 " fill="#000000" stroke="none" stroke-dasharray="none" stroke-linecap="inherit" stroke-linejoin="inherit" stroke-width="1" transform="matrix(0.0416666666667,0.0,0.0,-0.0416666666667,25.0,75.0)"/><text x="0" y="115" fill="#000000" font-size="5px" font-weight="bold" font-family="'Helvetica Neue', Helvetica, Arial-Unicode, Arial, Sans-serif">Created by Thomas Helbig</text><text x="0" y="120" fill="#000000" font-size="5px" font-weight="bold" font-family="'Helvetica Neue', Helvetica, Arial-Unicode, Arial, Sans-serif">from the Noun Project</text></svg>