<svg xmlns="http://www.w3.org/2000/svg" xmlns:xlink="http://www.w3.org/1999/xlink" version="1.1" x="0px" y="0px" viewBox="0 0 144.083 180" enable-background="new 0 0 144.083 144" xml:space="preserve"><path d="M98,110.873c-8.721,9.086-19.465-5.266-25.955-5.266c-6.491,0-16.919,14.615-25.957,5.266  c-8.538-8.832,1.029-42.001,25.957-42.001C97.76,68.872,106.51,102.008,98,110.873z"/><g><path d="M66.965,42.212c1.413,7.673-1.401,14.702-6.285,15.698c-4.885,0.996-9.989-4.418-11.402-12.091   c-1.411-7.673,1.401-14.702,6.286-15.698C60.449,29.126,65.552,34.538,66.965,42.212z"/><path d="M42.442,59.282c3.604,5.237,3.642,11.684,0.083,14.397c-3.559,2.713-9.365,0.667-12.97-4.568   c-3.604-5.237-3.642-11.684-0.083-14.397C33.032,52.001,38.836,54.046,42.442,59.282z"/><path d="M77.118,42.212c-1.414,7.673,1.4,14.702,6.285,15.698s9.988-4.418,11.402-12.091c1.41-7.673-1.402-14.702-6.287-15.698   C83.633,29.126,78.53,34.538,77.118,42.212z"/><path d="M101.641,59.282c-3.605,5.237-3.643,11.684-0.084,14.397c3.559,2.713,9.365,0.667,12.971-4.568   c3.604-5.237,3.641-11.684,0.082-14.397C111.051,52.001,105.247,54.046,101.641,59.282z"/></g><text x="0" y="159" fill="#000000" font-size="5px" font-weight="bold" font-family="'Helvetica Neue', Helvetica, Arial-Unicode, Arial, Sans-serif">Created by Nut Chanut</text><text x="0" y="164" fill="#000000" font-size="5px" font-weight="bold" font-family="'Helvetica Neue', Helvetica, Arial-Unicode, Arial, Sans-serif">from the Noun Project</text></svg>