<svg xmlns="http://www.w3.org/2000/svg" xmlns:xlink="http://www.w3.org/1999/xlink" version="1.1" x="0px" y="0px" viewBox="0 0 100 125" enable-background="new 0 0 100 100" xml:space="preserve"><path d="M97.002,83.222L82.023,68.243c-8.456,8.389-30.904-1.136-44.958-15.188l0.464-0.464  c11.769,11.769,33.689,18.961,40.785,11.942L34.751,20.97v0l0,0c-5.649-5.65-14.809-5.65-20.459,0  c-0.645,0.646-1.216,1.337-1.714,2.064L4.11,20.813l3.907,6.319L2.999,31.63l7.113,0.212c0.29,4.532,1.665,8.769,3.868,12.453  c-2.486,3.926-3.925,8.58-3.925,13.57c0,14.029,11.373,25.401,25.401,25.401L97.002,83.222z M23.688,30.507  c-1.853,0-3.355-1.502-3.355-3.354c0-1.853,1.502-3.355,3.355-3.355c1.854,0,3.355,1.502,3.355,3.355  C27.043,29.005,25.541,30.507,23.688,30.507z"/><text x="0" y="115" fill="#000000" font-size="5px" font-weight="bold" font-family="'Helvetica Neue', Helvetica, Arial-Unicode, Arial, Sans-serif">Created by Josh Camire</text><text x="0" y="120" fill="#000000" font-size="5px" font-weight="bold" font-family="'Helvetica Neue', Helvetica, Arial-Unicode, Arial, Sans-serif">from the Noun Project</text></svg>