<svg xmlns="http://www.w3.org/2000/svg" xmlns:xlink="http://www.w3.org/1999/xlink" version="1.1" x="0px" y="0px" viewBox="0 0 100 125" enable-background="new 0 0 100 100" xml:space="preserve"><g><path d="M64.349,47.941c5.235-11.218,14.694-35.264,1.893-39.509C54.038,4.384,53.135,29.719,53.555,43.896   c-0.973-0.117-1.96-0.185-2.965-0.185c-1.005,0-1.993,0.068-2.965,0.185c0.42-14.177-0.483-39.512-12.686-35.464   c-12.801,4.245-3.342,28.291,1.892,39.509c-6.475,4.406-10.729,11.834-10.729,20.258c0,13.525,10.963,24.488,24.488,24.488   c13.524,0,24.488-10.963,24.488-24.488C75.078,59.775,70.824,52.347,64.349,47.941z M38.005,69.886c-1.327,0-2.4-1.075-2.4-2.399   c0-1.325,1.074-2.399,2.4-2.399c1.325,0,2.398,1.074,2.398,2.399C40.404,68.811,39.331,69.886,38.005,69.886z M36.977,17.432   c3.748-0.297,4.365,27.347,4.365,27.347C39.296,38.386,33.229,17.729,36.977,17.432z M50.59,79.127   c-0.821,0-3.031-1.357-3.031-3.031c0-1.674,1.357-2.083,3.031-2.083c1.674,0,3.031,0.41,3.031,2.083   C53.621,77.77,51.411,79.127,50.59,79.127z M64.203,17.432c3.748,0.297-2.319,20.955-4.364,27.347   C59.839,44.779,60.455,17.135,64.203,17.432z M63.175,69.886c-1.325,0-2.398-1.075-2.398-2.399c0-1.325,1.074-2.399,2.398-2.399   s2.4,1.074,2.4,2.399C65.576,68.811,64.5,69.886,63.175,69.886z"/></g><text x="0" y="115" fill="#000000" font-size="5px" font-weight="bold" font-family="'Helvetica Neue', Helvetica, Arial-Unicode, Arial, Sans-serif">Created by Mint Shirt</text><text x="0" y="120" fill="#000000" font-size="5px" font-weight="bold" font-family="'Helvetica Neue', Helvetica, Arial-Unicode, Arial, Sans-serif">from the Noun Project</text></svg>