<svg xmlns="http://www.w3.org/2000/svg" xmlns:xlink="http://www.w3.org/1999/xlink" version="1.1" x="0px" y="0px" viewBox="0 0 144.083 180" enable-background="new 0 0 144.083 144" xml:space="preserve"><path d="M117.87,27.333L92.702,42.465H50.8L26.213,27.333l-2,54.668c0,25.311,22.518,34.666,47.828,34.666  s47.828-9.355,47.828-34.666L117.87,27.333z M48.604,76.377c-3.176,0-5.75-2.574-5.75-5.75s2.574-5.75,5.75-5.75  s5.75,2.574,5.75,5.75S51.78,76.377,48.604,76.377z M79.342,98.519c-2.854,0-5.437-1.169-7.302-3.051  c-1.864,1.882-4.448,3.051-7.301,3.051c-5.67,0-10.283-4.613-10.283-10.283c0-1.657,1.344-3,3-3c1.657,0,3,1.343,3,3  c0,2.361,1.922,4.283,4.283,4.283c1.953,0,3.587-1.321,4.101-3.111c-1.103-0.443-1.883-1.519-1.883-2.78c0-1.657,1.343-3,3-3h4.168  c1.656,0,3,1.343,3,3c0,1.262-0.78,2.336-1.883,2.78c0.513,1.79,2.146,3.111,4.1,3.111c2.361,0,4.283-1.922,4.283-4.283  c0-1.657,1.342-3,3-3c1.656,0,3,1.343,3,3C89.625,93.905,85.012,98.519,79.342,98.519z M95.479,76.377  c-3.176,0-5.75-2.574-5.75-5.75s2.574-5.75,5.75-5.75s5.75,2.574,5.75,5.75S98.655,76.377,95.479,76.377z"/><text x="0" y="159" fill="#000000" font-size="5px" font-weight="bold" font-family="'Helvetica Neue', Helvetica, Arial-Unicode, Arial, Sans-serif">Created by Nut Chanut</text><text x="0" y="164" fill="#000000" font-size="5px" font-weight="bold" font-family="'Helvetica Neue', Helvetica, Arial-Unicode, Arial, Sans-serif">from the Noun Project</text></svg>